# Blender v2.75 (sub 0) OBJ File: ''
# www.blender.org
mtllib pupitre.mtl
o Cylinder
v 0.000000 -3.989934 -0.200000
v 0.000000 0.014388 -0.089303
v 0.039018 -3.989934 -0.196157
v 0.039018 0.010950 -0.087587
v 0.076537 -3.989934 -0.184776
v 0.076537 0.000766 -0.082505
v 0.111114 -3.989934 -0.166294
v 0.111114 -0.015771 -0.074252
v 0.141421 -3.989934 -0.141421
v 0.141421 -0.038026 -0.063146
v 0.166294 -3.989934 -0.111114
v 0.166294 -0.065145 -0.049614
v 0.184776 -3.989934 -0.076537
v 0.184776 -0.096084 -0.034175
v 0.196157 -3.989934 -0.039018
v 0.196157 -0.129655 -0.017422
v 0.200000 -3.989934 -0.000000
v 0.200000 -0.164567 -0.000000
v 0.196157 -3.989934 0.039018
v 0.196157 -0.199480 0.017422
v 0.184776 -3.989934 0.076537
v 0.184776 -0.233050 0.034175
v 0.166294 -3.989934 0.111114
v 0.166294 -0.263989 0.049614
v 0.141421 -3.989934 0.141421
v 0.141421 -0.291108 0.063146
v 0.111114 -3.989934 0.166294
v 0.111114 -0.313363 0.074252
v 0.076537 -3.989934 0.184776
v 0.076537 -0.329901 0.082505
v 0.039018 -3.989934 0.196157
v 0.039018 -0.340084 0.087587
v -0.000000 -3.989934 0.200000
v -0.000000 -0.343523 0.089302
v -0.039018 -3.989934 0.196157
v -0.039018 -0.340084 0.087587
v -0.076537 -3.989934 0.184776
v -0.076537 -0.329901 0.082505
v -0.111114 -3.989934 0.166294
v -0.111114 -0.313363 0.074252
v -0.141421 -3.989934 0.141421
v -0.141421 -0.291108 0.063146
v -0.166294 -3.989934 0.111114
v -0.166294 -0.263989 0.049614
v -0.184776 -3.989934 0.076537
v -0.184776 -0.233050 0.034174
v -0.196157 -3.989934 0.039018
v -0.196157 -0.199480 0.017422
v -0.200000 -3.989934 -0.000000
v -0.200000 -0.164567 -0.000000
v -0.196157 -3.989934 -0.039018
v -0.196157 -0.129654 -0.017422
v -0.184776 -3.989934 -0.076537
v -0.184776 -0.096084 -0.034175
v -0.166294 -3.989934 -0.111114
v -0.166294 -0.065145 -0.049614
v -0.141421 -3.989934 -0.141422
v -0.141421 -0.038026 -0.063147
v -0.111114 -3.989934 -0.166294
v -0.111114 -0.015771 -0.074252
v -0.076536 -3.989934 -0.184776
v -0.076536 0.000766 -0.082505
v -0.039018 -3.989934 -0.196157
v -0.039018 0.010950 -0.087587
v 2.000000 1.249038 -0.836602
v 2.000000 -1.349038 0.663397
v -2.000000 -1.349038 0.663397
v -1.999999 1.249039 -0.836603
v 2.000001 1.349037 -0.663397
v 1.999999 -1.249039 0.836603
v -2.000001 -1.249038 0.836602
v -2.000000 1.349038 -0.663397
v 2.000000 -1.219134 0.588397
v -2.000000 -1.219134 0.588397
v 1.999999 -1.119135 0.761603
v -2.000001 -1.119134 0.761602
v 1.999999 -1.019135 0.934808
v 1.999999 -1.149039 1.009808
v -2.000001 -1.149038 1.009807
v -2.000001 -1.019134 0.934807
vt 0.012106 0.400584
vt 0.011199 0.719259
vt 0.005642 0.718940
vt 0.006549 0.400541
vt 0.000101 0.718092
vt 0.001005 0.400524
vt 0.152829 0.400631
vt 0.152829 0.670796
vt 0.148133 0.669662
vt 0.148133 0.400646
vt 0.143464 0.668142
vt 0.143463 0.400670
vt 0.138827 0.666289
vt 0.138827 0.400691
vt 0.134228 0.664175
vt 0.134227 0.400701
vt 0.129669 0.661879
vt 0.129668 0.400692
vt 0.125152 0.659483
vt 0.125151 0.400660
vt 0.120676 0.657090
vt 0.120675 0.400620
vt 0.116240 0.654772
vt 0.116239 0.400566
vt 0.111840 0.652637
vt 0.111839 0.400503
vt 0.107472 0.650755
vt 0.107471 0.400436
vt 0.103129 0.649205
vt 0.103129 0.400370
vt 0.098806 0.648046
vt 0.098805 0.400311
vt 0.094495 0.647324
vt 0.094494 0.400265
vt 0.090187 0.647064
vt 0.090186 0.400223
vt 0.085876 0.647449
vt 0.085878 0.400255
vt 0.081554 0.648629
vt 0.081564 0.400292
vt 0.077205 0.650682
vt 0.077230 0.400349
vt 0.072810 0.653757
vt 0.072862 0.400418
vt 0.068345 0.658097
vt 0.068441 0.400489
vt 0.063781 0.664041
vt 0.063946 0.400553
vt 0.059080 0.671898
vt 0.059347 0.400600
vt 0.054211 0.681393
vt 0.054612 0.400622
vt 0.049170 0.691082
vt 0.049712 0.400643
vt 0.043981 0.699469
vt 0.044643 0.400647
vt 0.038675 0.706112
vt 0.039427 0.400637
vt 0.033278 0.711154
vt 0.034094 0.400618
vt 0.027814 0.714835
vt 0.028674 0.400597
vt 0.022301 0.717340
vt 0.023189 0.400581
vt 0.218738 0.439258
vt 0.214894 0.440023
vt 0.210974 0.440023
vt 0.207129 0.439258
vt 0.203508 0.437758
vt 0.200248 0.435580
vt 0.197477 0.432808
vt 0.195299 0.429549
vt 0.193799 0.425928
vt 0.193034 0.422083
vt 0.193034 0.418163
vt 0.193799 0.414318
vt 0.195299 0.410697
vt 0.197477 0.407438
vt 0.200248 0.404666
vt 0.203508 0.402488
vt 0.207129 0.400988
vt 0.210974 0.400223
vt 0.214894 0.400223
vt 0.218738 0.400988
vt 0.222360 0.402488
vt 0.225619 0.404666
vt 0.228391 0.407438
vt 0.230568 0.410697
vt 0.232069 0.414318
vt 0.232833 0.418163
vt 0.232833 0.422083
vt 0.232069 0.425928
vt 0.230568 0.429549
vt 0.228391 0.432808
vt 0.225619 0.435580
vt 0.222360 0.437758
vt 0.017660 0.400575
vt 0.016757 0.718792
vt 0.185617 0.404666
vt 0.188389 0.407438
vt 0.190566 0.410697
vt 0.192066 0.414318
vt 0.192831 0.418163
vt 0.192831 0.422083
vt 0.192066 0.425928
vt 0.190566 0.429549
vt 0.188389 0.432808
vt 0.185617 0.435580
vt 0.182357 0.437758
vt 0.178736 0.439258
vt 0.174891 0.440023
vt 0.170971 0.440023
vt 0.167127 0.439258
vt 0.163505 0.437758
vt 0.160246 0.435580
vt 0.157474 0.432808
vt 0.155297 0.429549
vt 0.153797 0.425927
vt 0.153032 0.422083
vt 0.153032 0.418163
vt 0.153797 0.414319
vt 0.155297 0.410697
vt 0.157474 0.407438
vt 0.160246 0.404666
vt 0.163505 0.402488
vt 0.167127 0.400988
vt 0.170972 0.400223
vt 0.174891 0.400223
vt 0.178736 0.400988
vt 0.182357 0.402488
vt 0.699296 0.434040
vt 0.299377 0.434040
vt 0.299377 0.419043
vt 0.699296 0.419043
vt 0.299377 0.399047
vt 0.299377 0.379051
vt 0.699296 0.379051
vt 0.699296 0.399047
vt 0.984902 0.719462
vt 0.999899 0.719462
vt 0.999899 0.739457
vt 0.984902 0.739457
vt 0.015098 0.719462
vt 0.300043 0.719462
vt 0.300043 0.739458
vt 0.015098 0.739458
vt 0.699964 0.739458
vt 0.699964 0.719462
vt 0.000101 0.719462
vt 0.000101 0.739458
vt 0.699296 0.059116
vt 0.699296 0.344058
vt 0.299377 0.344058
vt 0.299377 0.059116
vt 0.699296 0.718982
vt 0.299377 0.718982
vt 0.699296 0.364054
vt 0.299377 0.364054
vt 0.999899 0.759453
vt 0.984902 0.759453
vt 0.015098 0.759454
vt 0.000101 0.759454
vn 0.072200 0.027300 -0.997000
vn 0.217600 0.025700 -0.975700
vn 0.365200 0.022700 -0.930600
vn 0.515300 0.018400 -0.856800
vn 0.665200 0.013200 -0.746600
vn 0.806500 0.007900 -0.591200
vn 0.922900 0.003200 -0.385100
vn 0.990900 0.000400 -0.134700
vn 0.990800 0.000400 0.135200
vn 0.921400 0.003300 0.388500
vn 0.801700 0.008300 0.597600
vn 0.656700 0.014200 0.754000
vn 0.504900 0.019900 0.862900
vn 0.355300 0.024700 0.934400
vn 0.210600 0.028200 0.977200
vn 0.069700 0.030000 0.997100
vn -0.069700 0.030000 0.997100
vn -0.210600 0.028200 0.977200
vn -0.355300 0.024700 0.934400
vn -0.504900 0.019900 0.862900
vn -0.656700 0.014200 0.754000
vn -0.801700 0.008300 0.597600
vn -0.921400 0.003300 0.388500
vn -0.990800 0.000400 0.135200
vn -0.990900 0.000400 -0.134700
vn -0.922900 0.003200 -0.385100
vn -0.806500 0.007900 -0.591200
vn -0.665200 0.013200 -0.746600
vn -0.515300 0.018400 -0.856800
vn -0.365200 0.022700 -0.930600
vn -0.000000 0.446500 0.894800
vn -0.072200 0.027300 -0.997000
vn -0.217600 0.025700 -0.975700
vn 0.000000 -1.000000 -0.000000
vn 0.000000 0.500000 0.866000
vn 0.000000 0.866000 -0.500000
vn -1.000000 -0.000000 -0.000000
vn 1.000000 0.000000 0.000000
vn -0.000000 -0.866000 0.500000
vn -0.000000 -0.500000 -0.866000
usemtl Material
s off
f 1/1/1 2/2/1 4/3/1 3/4/1
f 3/4/2 4/3/2 6/5/2 5/6/2
f 5/7/3 6/8/3 8/9/3 7/10/3
f 7/10/4 8/9/4 10/11/4 9/12/4
f 9/12/5 10/11/5 12/13/5 11/14/5
f 11/14/6 12/13/6 14/15/6 13/16/6
f 13/16/7 14/15/7 16/17/7 15/18/7
f 15/18/8 16/17/8 18/19/8 17/20/8
f 17/20/9 18/19/9 20/21/9 19/22/9
f 19/22/10 20/21/10 22/23/10 21/24/10
f 21/24/11 22/23/11 24/25/11 23/26/11
f 23/26/12 24/25/12 26/27/12 25/28/12
f 25/28/13 26/27/13 28/29/13 27/30/13
f 27/30/14 28/29/14 30/31/14 29/32/14
f 29/32/15 30/31/15 32/33/15 31/34/15
f 31/34/16 32/33/16 34/35/16 33/36/16
f 33/36/17 34/35/17 36/37/17 35/38/17
f 35/38/18 36/37/18 38/39/18 37/40/18
f 37/40/19 38/39/19 40/41/19 39/42/19
f 39/42/20 40/41/20 42/43/20 41/44/20
f 41/44/21 42/43/21 44/45/21 43/46/21
f 43/46/22 44/45/22 46/47/22 45/48/22
f 45/48/23 46/47/23 48/49/23 47/50/23
f 47/50/24 48/49/24 50/51/24 49/52/24
f 49/52/25 50/51/25 52/53/25 51/54/25
f 51/54/26 52/53/26 54/55/26 53/56/26
f 53/56/27 54/55/27 56/57/27 55/58/27
f 55/58/28 56/57/28 58/59/28 57/60/28
f 57/60/29 58/59/29 60/61/29 59/62/29
f 59/62/30 60/61/30 62/63/30 61/64/30
f 4/65/31 2/66/31 64/67/31 62/68/31 60/69/31 58/70/31 56/71/31 54/72/31 52/73/31 50/74/31 48/75/31 46/76/31 44/77/31 42/78/31 40/79/31 38/80/31 36/81/31 34/82/31 32/83/31 30/84/31 28/85/31 26/86/31 24/87/31 22/88/31 20/89/31 18/90/31 16/91/31 14/92/31 12/93/31 10/94/31 8/95/31 6/96/31
f 63/97/32 64/98/32 2/2/32 1/1/32
f 61/64/33 62/63/33 64/98/33 63/97/33
f 1/99/34 3/100/34 5/101/34 7/102/34 9/103/34 11/104/34 13/105/34 15/106/34 17/107/34 19/108/34 21/109/34 23/110/34 25/111/34 27/112/34 29/113/34 31/114/34 33/115/34 35/116/34 37/117/34 39/118/34 41/119/34 43/120/34 45/121/34 47/122/34 49/123/34 51/124/34 53/125/34 55/126/34 57/127/34 59/128/34 61/129/34 63/130/34
f 73/131/35 74/132/35 67/133/35 66/134/35
f 71/135/36 79/136/36 78/137/36 70/138/36
f 73/139/37 66/140/37 70/141/37 75/142/37
f 66/134/36 67/133/36 71/135/36 70/138/36
f 74/143/38 68/144/38 72/145/38 76/146/38
f 69/147/39 72/145/39 68/144/39 65/148/39
f 67/149/38 74/143/38 76/146/38 71/150/38
f 65/148/37 73/139/37 75/142/37 69/147/37
f 69/151/40 75/152/40 76/153/40 72/154/40
f 65/155/35 68/156/35 74/132/35 73/131/35
f 77/157/40 78/137/40 79/136/40 80/158/40
f 70/141/37 78/159/37 77/160/37 75/142/37
f 76/146/38 80/161/38 79/162/38 71/150/38
f 75/152/39 77/157/39 80/158/39 76/153/39
